<svg width="527" height="639" viewBox="0 0 527 639" fill="none" xmlns="http://www.w3.org/2000/svg">
<path d="M127.191 110.284L236.733 110.284L138.734 432.241C84.9166 393.587 61.714 324.938 81.0463 261.561L127.191 110.284Z" fill="white"/>
<path d="M354.734 320.241L463.234 320.241L397.564 527.296C346.054 528.413 308.297 479.166 322.747 429.712L354.734 320.241Z" fill="#06B6D4"/>
<path d="M140.234 152.513L236.637 110.281C236.688 110.259 236.746 110.282 236.769 110.333L317.374 294.33C340.606 347.361 316.339 409.177 263.234 432.241L140.234 152.513Z" fill="white"/>
<path d="M31.7338 432.241L138.734 432.241L109.234 528.241L3.23382 528.241L31.7338 432.241Z" fill="white"/>
<path d="M417.234 110.241L522.234 110.241L463.234 320.241C409.019 277.552 386.938 205.733 407.805 139.96L417.234 110.241Z" fill="#06B6D4"/>
<path d="M189.234 528.241L189.234 432.241L321.734 432.241L321.268 433.673C302.714 490.708 249.205 529.033 189.234 528.241Z" fill="#06B6D4"/>
</svg>
