<svg width="44" height="44" viewBox="0 0 44 44" fill="none" xmlns="http://www.w3.org/2000/svg">
<path d="M11.8875 20.3875V7.38751C11.8875 4.62609 14.1261 2.38751 16.8875 2.38751C19.6489 2.38751 21.8875 4.62609 21.8875 7.38751V9.38751" stroke="#06B6D4" stroke-linecap="round"/>
<path d="M21.8875 9.38751V7.38751C21.8875 4.62609 24.1261 2.38751 26.8875 2.38751C29.6489 2.38751 31.8875 4.62609 31.8875 7.38751V20.3875" stroke="#06B6D4" stroke-linecap="round"/>
<path d="M11.8875 20.3875V7.38751C11.8875 4.62609 14.1261 2.38751 16.8875 2.38751C19.6489 2.38751 21.8875 4.62609 21.8875 7.38751V9.38751" stroke="#06B6D4" stroke-linecap="round"/>
<path d="M21.8875 9.38751V7.38751C21.8875 4.62609 24.1261 2.38751 26.8875 2.38751C29.6489 2.38751 31.8875 4.62609 31.8875 7.38751V20.3875" stroke="#06B6D4" stroke-linecap="round"/>
<path d="M11.8875 23.3875V36.3875C11.8875 39.1489 14.1261 41.3875 16.8875 41.3875C19.6489 41.3875 21.8875 39.1489 21.8875 36.3875V34.3875" stroke="#06B6D4" stroke-linecap="round"/>
<path d="M21.8875 34.3875V36.3875C21.8875 39.1489 24.1261 41.3875 26.8875 41.3875C29.6489 41.3875 31.8875 39.1489 31.8875 36.3875V23.3875" stroke="#06B6D4" stroke-linecap="round"/>
<path d="M13.9772 15.5885L20.4772 4.33013C21.8579 1.93866 24.9159 1.11929 27.3074 2.5C29.6988 3.88071 30.5182 6.93866 29.1375 9.33013L28.1375 11.0622" stroke="#06B6D4" stroke-linecap="round"/>
<path d="M28.1375 11.0622L29.1375 9.33013C30.5182 6.93866 33.5762 6.11929 35.9676 7.5C38.3591 8.88071 39.1785 11.9387 37.7978 14.3301L31.2978 25.5885" stroke="#06B6D4" stroke-linecap="round"/>
<path d="M12.4772 18.1865L5.97723 29.4449C4.59652 31.8363 5.4159 34.8943 7.80736 36.275C10.1988 37.6557 13.2568 36.8363 14.6375 34.4449L15.6375 32.7128" stroke="#06B6D4" stroke-linecap="round"/>
<path d="M15.6375 32.7128L14.6375 34.4449C13.2568 36.8363 14.0762 39.8943 16.4676 41.275C18.8591 42.6557 21.9171 41.8363 23.2978 39.4449L29.7978 28.1865" stroke="#06B6D4" stroke-linecap="round"/>
<path d="M18.1865 12.4772L29.4448 5.97723C31.8363 4.59652 34.8943 5.4159 36.275 7.80736C37.6557 10.1988 36.8363 13.2568 34.4448 14.6375L32.7128 15.6375" stroke="#06B6D4" stroke-linecap="round"/>
<path d="M32.7128 15.6375L34.4448 14.6375C36.8363 13.2568 39.8943 14.0761 41.275 16.4676C42.6557 18.8591 41.8363 21.917 39.4448 23.2977L28.1865 29.7977" stroke="#06B6D4" stroke-linecap="round"/>
<path d="M15.5885 13.9772L4.33013 20.4772C1.93866 21.8579 1.11929 24.9159 2.5 27.3074C3.88071 29.6988 6.93866 30.5182 9.33013 29.1375L11.0622 28.1375" stroke="#06B6D4" stroke-linecap="round"/>
<path d="M11.0622 28.1375L9.33013 29.1375C6.93866 30.5182 6.11929 33.5761 7.5 35.9676C8.88071 38.3591 11.9387 39.1784 14.3301 37.7977L25.5885 31.2977" stroke="#06B6D4" stroke-linecap="round"/>
<path d="M23.3875 11.8875H36.3875C39.1489 11.8875 41.3875 14.1261 41.3875 16.8875C41.3875 19.6489 39.1489 21.8875 36.3875 21.8875H34.3875" stroke="#06B6D4" stroke-linecap="round"/>
<path d="M34.3875 21.8875H36.3875C39.1489 21.8875 41.3875 24.1261 41.3875 26.8875C41.3875 29.6489 39.1489 31.8875 36.3875 31.8875H23.3875" stroke="#06B6D4" stroke-linecap="round"/>
<path d="M20.3875 11.8875H7.38745C4.62603 11.8875 2.38745 14.1261 2.38745 16.8875C2.38745 19.6489 4.62603 21.8875 7.38745 21.8875H9.38745" stroke="#06B6D4" stroke-linecap="round"/>
<path d="M9.38745 21.8875H7.38745C4.62603 21.8875 2.38745 24.1261 2.38745 26.8875C2.38745 29.6489 4.62603 31.8875 7.38745 31.8875H20.3875" stroke="#06B6D4" stroke-linecap="round"/>
<path d="M28.1865 13.9772L39.4448 20.4772C41.8363 21.8579 42.6557 24.9159 41.275 27.3074C39.8943 29.6988 36.8363 30.5182 34.4448 29.1375L32.7128 28.1375" stroke="#06B6D4" stroke-linecap="round"/>
<path d="M32.7128 28.1375L34.4448 29.1375C36.8363 30.5182 37.6557 33.5761 36.275 35.9676C34.8943 38.3591 31.8363 39.1784 29.4448 37.7977L18.1865 31.2977" stroke="#06B6D4" stroke-linecap="round"/>
<path d="M25.5885 12.4772L14.3301 5.97723C11.9387 4.59652 8.88071 5.4159 7.5 7.80736C6.11929 10.1988 6.93866 13.2568 9.33013 14.6375L11.0622 15.6375" stroke="#06B6D4" stroke-linecap="round"/>
<path d="M11.0622 15.6375L9.33013 14.6375C6.93866 13.2568 3.88071 14.0761 2.5 16.4676C1.11929 18.8591 1.93866 21.917 4.33013 23.2977L15.5885 29.7977" stroke="#06B6D4" stroke-linecap="round"/>
<path d="M31.2977 18.1865L37.7977 29.4449C39.1784 31.8363 38.3591 34.8943 35.9676 36.275C33.5761 37.6557 30.5182 36.8363 29.1375 34.4449L28.1375 32.7128" stroke="#06B6D4" stroke-linecap="round"/>
<path d="M28.1375 32.7128L29.1375 34.4449C30.5182 36.8363 29.6988 39.8943 27.3073 41.275C24.9159 42.6557 21.8579 41.8363 20.4772 39.4449L13.9772 28.1865" stroke="#06B6D4" stroke-linecap="round"/>
<path d="M29.7977 15.5885L23.2977 4.33013C21.917 1.93866 18.8591 1.11929 16.4676 2.5C14.0761 3.88071 13.2568 6.93866 14.6375 9.33013L15.6375 11.0622" stroke="#06B6D4" stroke-linecap="round"/>
<path d="M15.6375 11.0622L14.6375 9.33013C13.2567 6.93866 10.1988 6.11929 7.80732 7.5C5.41586 8.88071 4.59649 11.9387 5.9772 14.3301L12.4772 25.5885" stroke="#06B6D4" stroke-linecap="round"/>
</svg>
